# AST/ASF file generated using VICON BodyLanguage
# -----------------------------------------------
:version 1.10
:name VICON
:units
  mass 1.0
  length 0.45
  angle deg
:documentation
   .ast/.asf automatically generated from VICON data using
   VICON BodyBuilder and BodyLanguage model FoxedUp or BRILLIANT.MOD
:root
   order TX TY TZ RX RY RZ
   axis XYZ
   position 0 0 0  
   orientation 0 0 0 
:bonedata
  begin
     id 1 
     name lhipjoint
     direction 0.653368 -0.678499 0.335782 
     length 2.51848 
     axis 0 0 0  XYZ
  end
  begin
     id 2 
     name lfemur
     direction 0.34202 -0.939693 0  
     length 6.57749  
     axis 0 0 20  XYZ
    dof rx ry rz
    limits (-160.0 20.0)
           (-70.0 70.0)
           (-60.0 70.0)
  end
  begin
     id 3 
     name ltibia
     direction 0.34202 -0.939693 0   
     length 7.94618   
     axis 0 0 20   XYZ
    dof rx
    limits (-10.0 170.0)
  end
  begin
     id 4 
     name lfoot
     direction 0.0811271 -0.222895 0.971461   
     length 2.31339   
     axis -90 7.62852e-016 20   XYZ
    dof rx rz
    limits (-45.0 90.0)
           (-70.0 20.0)
  end
  begin
     id 5 
     name ltoes
     direction 1.53568e-011 -4.21885e-011 1   
     length 1.15935   
     axis -90 7.62852e-016 20   XYZ
    dof rx
    limits (-90.0 20.0)
  end
  begin
     id 6 
     name rhipjoint
     direction -0.640058 -0.688614 0.340788   
     length 2.48149  
     axis 0 0 0  XYZ 
  end
  begin
     id 7 
     name rfemur
     direction -0.34202 -0.939693 0   
     length 6.57875   
     axis 0 0 -20   XYZ
    dof rx ry rz
    limits (-160.0 20.0)
           (-70.0 70.0)
           (-70.0 60.0)
  end
  begin
     id 8 
     name rtibia
     direction -0.34202 -0.939693 0   
     length 7.977   
     axis 0 0 -20   XYZ
    dof rx
    limits (-10.0 170.0)
 end
 begin
     id 9 
     name rfoot
     direction -0.0979793 -0.269196 0.958089   
     length 2.19857  
     axis -90 -7.62852e-016 -20   XYZ
    dof rx rz
    limits (-45.0 90.0)
           (-20.0 70.0)
  end
  begin
     id 10 
     name rtoes
     direction -1.53556e-011 -4.21868e-011 1   
     length 1.09838   
     axis -90 -7.62852e-016 -20   XYZ
    dof rx
    limits (-90.0 20.0)
  end
  begin
     id 11 
     name lowerback
     direction 0.0149039 0.998517 -0.0523597   
     length 2.10809   
     axis 0 0 0   XYZ
    dof rx ry rz
    limits (-20.0 45.0)
           (-30.0 30.0)
           (-30.0 30.0)
  end
  begin
     id 12 
     name upperback
     direction -0.00882659 0.999418 -0.0329624   
     length 2.1102   
     axis 0 0 0   XYZ
    dof rx ry rz
    limits (-20.0 45.0)
           (-30.0 30.0)
           (-30.0 30.0)
  end
  begin
     id 13 
     name thorax
     direction -0.0165585 0.999826 -0.0085833   
     length 2.11039   
     axis 0 0 0   XYZ
    dof rx ry rz
    limits (-20.0 45.0)
           (-30.0 30.0)
           (-30.0 30.0)
  end
  begin
     id 14 
     name lowerneck
     direction -0.0130877 0.999911 0.00260353   
     length 1.73253   
     axis 0 0 0   XYZ
    dof rx ry rz
    limits (-20.0 45.0)
           (-30.0 30.0)
           (-30.0 30.0)
  end
  begin
     id 15 
     name upperneck
     direction -0.0348454 0.928205 -0.370435   
     length 1.66692   
     axis 0 0 0   XYZ
    dof rx ry rz
    limits (-20.0 45.0)
           (-30.0 30.0)
           (-30.0 30.0)
  end
  begin
     id 16
     name head
     direction -0.00807754 0.992494 -0.122026  
     length 1.72765  
     axis 0 0 0   XYZ
    dof rx ry rz
    limits (-20.0 45.0)
           (-30.0 30.0)
           (-30.0 30.0)
  end
  begin
     id 17 
     name lclavicle
     direction 0.987582 0.144023 0.0627671  
     length 3.49235  
     axis 0 0 0   XYZ
    dof ry rz
    limits (-20.0 10.0)
           (0.0 20.0)
  end
  begin
     id 18 
     name lhumerus
     direction 1 -4.48958e-011 -1.45183e-018   
     length 5.41917   
     axis 180 -30 -90   XYZ
    dof rx ry rz
    limits (-60.0 90.0)
           (-90.0 90.0)
           (-90.0 90.0)
  end
  begin
     id 19
     name lradius
     direction 1 -4.48999e-011 5.75106e-027   
     length 2.44373   
     axis 180 -30 -90   XYZ
    dof rx
    limits (-10.0 170.0)
  end
  begin
     id 20
     name lwrist
     direction 1 -4.48987e-011 1.53461e-026   
     length 1.22186   
     axis -1.09697e-014 90 90   XYZ
    dof ry
    limits (-180.0 0.0)
 end
  begin
     id 21 
     name lhand
     direction 1 -4.48881e-011 3.06923e-026   
     length 0.727502   
     axis -1.95843e-014 90 90   XYZ
    dof rx rz
    limits (-90.0 90.0)
           (-45.0 45.0)
  end
  begin
     id 22 
     name lfingers
     direction 1 -4.48907e-011 6.13845e-026   
     length 0.586531   
     axis -3.91686e-014 90 90   XYZ
    dof rx
    limits (0.0 90.0)
  end
  begin
     id 23
     name lthumb
     direction 0.707107 -6.3487e-011 0.707107   
     length 0.842145   
     axis -90 45 2.85299e-015   XYZ
    dof rx rz
    limits (-45.0 45.0)
           (-45.0 45.0)
  end
  begin
     id 24 
     name rclavicle
     direction -0.980998 0.169556 0.0943023   
     length 3.29272  
     axis 0 0 0   XYZ 
    dof ry rz
    limits (-10.0 20.0)
           (-20.0 0.0)
  end
  begin
     id 25 
     name rhumerus
     direction -1 -1.83355e-005 2.45537e-005  
     length 5.58976   
     axis 180 30 90   XYZ
    dof rx ry rz
    limits (-90.0 60.0)
           (-90.0 90.0)
           (-90.0 90.0)
  end
  begin
     id 26 
     name rradius
     direction -1 -4.48967e-011 5.97228e-027   
     length 2.4806   
     axis 180 30 90   XYZ
    dof rx
    limits (-10.0 170.0)
  end
  begin
     id 27 
     name rwrist
     direction -1 -4.48963e-011 1.53461e-026   
     length 1.2403   
     axis -1.09697e-014 -90 -90   XYZ
    dof ry
    limits (-180.0 0.0)
  end
  begin
     id 28
     name rhand
     direction -1 -4.48881e-011 3.06923e-026   
     length 0.816009   
     axis -1.95843e-014 -90 -90   XYZ
    dof rx rz
    limits (-90.0 90.0)
           (-45.0 45.0)
  end
  begin
     id 29
     name rfingers
     direction -1 -4.49018e-011 6.13845e-026   
     length 0.657887   
     axis -3.91686e-014 -90 -90   XYZ
    dof rx
    limits (0.0 90.0)
  end
  begin
     id 30
     name rthumb
     direction -0.707107 -6.34872e-011 0.707107   
     length 0.944599   
     axis -90 -45 -2.85299e-015   XYZ
    dof rx rz
    limits (-45.0 45.0)
           (-45.0 45.0)
  end
:hierarchy
  begin
    root lhipjoint rhipjoint lowerback
    lhipjoint lfemur
    lfemur ltibia
    ltibia lfoot
    lfoot ltoes
    rhipjoint rfemur
    rfemur rtibia
    rtibia rfoot
    rfoot rtoes
    lowerback upperback
    upperback thorax
    thorax lowerneck lclavicle rclavicle
    lowerneck upperneck
    upperneck head
    lclavicle lhumerus
    lhumerus lradius
    lradius lwrist
    lwrist lhand lthumb
    lhand lfingers
    rclavicle rhumerus
    rhumerus rradius
    rradius rwrist
    rwrist rhand rthumb
    rhand rfingers
  end

#!OML:ASF F:\VICON\USERDATA\INSTALL\rory3\rory3.ASF
:FULLY-SPECIFIED
:DEGREES
127
root -2.19678 17.284 15.6937 -161.596 -18.2888 -178.628
lowerback -6.35104 2.20744 0.705691
upperback -4.45506 2.63904 0.394523
thorax -1.01659 1.19446 0.152907
lowerneck -12.1603 1.53556 -0.676903
upperneck 43.5178 -3.96878 1.55731
head 18.5148 -3.18224 -0.431916
rclavicle 7.90169e-015 -7.95139e-015
rhumerus -45.0729 -24.5428 -60.6632
rradius 9.8733
rwrist 20.6227
rhand -6.20716 20.5467
rfingers 7.12502
rthumb 19.6332 -8.48193
lclavicle 7.90169e-015 -7.95139e-015
lhumerus -47.2547 13.1556 68.6586
lradius 44.9839
lwrist 1.68225
lhand 0.266403 19.048
lfingers 7.12502
lthumb 25.8455 47.3119
rfemur -11.6206 8.34222 26.0344
rtibia 14.6489
rfoot -32.0289 -35.5383
rtoes 21.2149
lfemur -36.6487 1.23672 -24.043
ltibia 29.0775
lfoot -36.4465 27.4606
ltoes 20.3158
128
root -2.14873 17.2828 15.7494 -161.823 -18.3735 -178.315
lowerback -5.82628 2.03553 1.06934
upperback -4.23318 2.42099 0.776957
thorax -1.08017 1.09182 0.316374
lowerneck -12.9049 1.65914 -1.20587
upperneck 43.5468 -3.42677 1.435
head 18.7269 -3.03107 -0.299171
rclavicle -5.20816e-014 -5.96354e-015
rhumerus -44.0892 -24.1487 -60.8474
rradius 10.093
rwrist 20.7616
rhand -6.07271 20.8434
rfingers 7.12502
rthumb 19.7625 -8.172
lclavicle -5.20816e-014 -5.96354e-015
lhumerus -47.4598 13.9906 68.8758
lradius 45.3621
lwrist 1.76768
lhand -0.0268241 19.4662
lfingers 7.12502
lthumb 25.5647 47.7706
rfemur -11.5373 8.82842 26.4499
rtibia 14.3324
rfoot -32.6655 -35.7
rtoes 22.3576
lfemur -36.9267 1.41749 -23.6718
ltibia 29.2423
lfoot -35.9926 28.0698
ltoes 18.9017
129
root -2.11501 17.2845 15.7946 -162.235 -17.9503 -178.146
lowerback -5.2533 2.65842 1.79186
upperback -4.40888 3.23694 0.295247
thorax -1.51061 1.47484 -0.569931
lowerneck -11.9295 1.38494 -0.674753
upperneck 43.4289 -4.1788 1.55117
head 18.4004 -3.26078 -0.463225
rclavicle 1.10624e-013 8.94531e-015
rhumerus -44.8937 -23.6651 -61.7808
rradius 10.6965
rwrist 18.655
rhand -6.32165 21.0621
rfingers 7.12502
rthumb 19.5231 -7.97766
lclavicle 1.10624e-013 8.94531e-015
lhumerus -47.6466 12.8414 68.4907
lradius 45.1379
lwrist 1.17387
lhand 0.548482 18.0522
lfingers 7.12502
lthumb 26.1156 46.2764
rfemur -11.1388 9.49232 26.5491
rtibia 13.9194
rfoot -32.981 -35.8176
rtoes 23.2665
lfemur -36.8424 1.75886 -23.4944
ltibia 29.4479
lfoot -35.6991 28.2039
ltoes 18.7076
130
root -2.06428 17.281 15.8619 -162.096 -18.2875 -178.144
lowerback -4.87769 2.54644 2.07094
upperback -4.29449 3.10131 0.391141
thorax -1.59516 1.40764 -0.646377
lowerneck -12.6947 1.41831 -0.789504
upperneck 43.5214 -3.89602 1.34424
head 18.6559 -3.15144 -0.497826
rclavicle 2.53699e-014 -7.7526e-015
rhumerus -43.8182 -22.3737 -63.23
rradius 11.2097
rwrist 16.7387
rhand -6.24602 20.955
rfingers 7.12502
rthumb 19.5958 -8.07743
lclavicle 2.53699e-014 -7.7526e-015
lhumerus -47.5378 13.481 68.3525
lradius 45.0575
lwrist 0.676638
lhand 1.05702 17.3064
lfingers 7.12502
lthumb 26.6024 45.4577
rfemur -11.4344 10.0809 26.5969
rtibia 13.6587
rfoot -33.9067 -36.0812
rtoes 25.0232
lfemur -37.4576 1.99348 -23.5141
ltibia 29.6053
lfoot -34.5862 27.969
ltoes 18.6979
131
root -2.02576 17.2755 15.9156 -162.194 -18.4634 -178.127
lowerback -4.64781 2.7883 2.57398
upperback -4.37776 3.41492 0.188715
thorax -1.76055 1.54672 -1.13463
lowerneck -11.9837 1.27818 -0.507706
upperneck 43.279 -4.19133 1.33845
head 18.31 -3.23378 -0.58286
rclavicle 8.0309e-014 1.35174e-014
rhumerus -44.1108 -22.0749 -63.7025
rradius 11.6447
rwrist 15.6158
rhand -5.85778 20.7288
rfingers 7.12502
rthumb 19.9691 -8.26518
lclavicle 8.0309e-014 1.35174e-014
lhumerus -47.7064 11.9298 69.1353
lradius 45.7269
lwrist 2.27069
lhand -0.299584 18.9287
lfingers 7.12502
lthumb 25.3034 47.2703
rfemur -11.482 10.3847 26.715
rtibia 13.6445
rfoot -34.3538 -36.2641
rtoes 25.6658
lfemur -37.6806 2.27979 -23.539
ltibia 29.6794
lfoot -33.8757 27.866
ltoes 18.5172
132
root -1.98591 17.2765 15.9763 -162.248 -18.5198 -178.179
lowerback -4.26498 2.36653 2.43385
upperback -3.98985 2.89173 0.760683
thorax -1.62906 1.31143 -0.496076
lowerneck -13.046 1.55515 -1.3188
upperneck 43.366 -3.22771 1.06591
head 18.6351 -2.97161 -0.400077
rclavicle -3.59303e-014 -3.18055e-015
rhumerus -41.9555 -20.0237 -64.9596
rradius 11.6111
rwrist 14.2868
rhand -5.50008 20.2803
rfingers 7.12502
rthumb 20.3129 -8.6774
lclavicle -3.59303e-014 -3.18055e-015
lhumerus -47.9413 13.7927 69.2368
lradius 45.8716
lwrist 1.80319
lhand -0.291734 18.0104
lfingers 7.12502
lthumb 25.3109 46.351
rfemur -11.6372 10.9837 26.6801
rtibia 13.6543
rfoot -34.8044 -36.7743
rtoes 26.0359
lfemur -37.9028 2.50873 -23.6042
ltibia 29.7567
lfoot -33.7714 27.4056
ltoes 19.4005
133
root -1.9374 17.2751 16.0432 -162.102 -18.7732 -178.163
lowerback -4.02056 2.50857 2.79097
upperback -4.08838 3.07948 0.682991
thorax -1.84003 1.39115 -0.781256
lowerneck -12.774 1.42596 -1.29012
upperneck 43.2341 -3.3952 1.02402
head 18.4791 -3.03316 -0.444603
rclavicle 2.48481e-016 1.15295e-014
rhumerus -41.9491 -19.9172 -65.2077
rradius 11.9741
rwrist 13.5066
rhand -5.35058 20.148
rfingers 7.12502
rthumb 20.4565 -8.79436
lclavicle 2.48481e-016 1.15295e-014
lhumerus -48.0374 13.4224 69.4042
lradius 46.2873
lwrist 1.6342
lhand -0.105232 18.3072
lfingers 7.12502
lthumb 25.4896 46.6224
rfemur -12.1247 11.7373 26.6853
rtibia 13.7291
rfoot -35.6814 -37.1967
rtoes 27.1237
lfemur -38.4804 2.76148 -23.6459
ltibia 29.8028
lfoot -32.9678 27.3845
ltoes 19.4189
134
root -1.90411 17.2745 16.09 -162.456 -18.5154 -178.007
lowerback -3.53172 2.68106 3.27444
upperback -3.9052 3.33263 0.673071
thorax -1.88879 1.51453 -1.07118
lowerneck -12.7412 1.45674 -1.10449
upperneck 42.9368 -3.12197 0.712006
head 18.2676 -2.90325 -0.555582
rclavicle -5.2181e-014 1.31198e-014
rhumerus -41.6514 -19.6338 -65.5937
rradius 12.4757
rwrist 12.7824
rhand -5.34635 20.0268
rfingers 7.12502
rthumb 20.4606 -8.91513
lclavicle -5.2181e-014 1.31198e-014
lhumerus -48.1014 13.3059 69.707
lradius 46.9714
lwrist 1.79853
lhand -0.147551 19.8022
lfingers 7.12502
lthumb 25.449 48.1231
rfemur -12.0594 12.4114 26.8286
rtibia 13.9181
rfoot -36.1739 -37.179
rtoes 27.8886
lfemur -38.3834 3.30662 -23.56
ltibia 29.8404
lfoot -32.5349 27.2926
ltoes 19.6015
135
root -1.8561 17.2724 16.1548 -162.343 -18.7096 -178.135
lowerback -3.41321 2.80358 3.58269
upperback -3.68224 3.50779 0.499943
thorax -1.68954 1.60724 -1.41501
lowerneck -13.0006 1.36454 -0.76727
upperneck 42.5922 -3.06482 0.473724
head 18.1158 -2.80122 -0.696639
rclavicle 1.12015e-013 7.15625e-015
rhumerus -41.2726 -20.1207 -65.7907
rradius 12.8959
rwrist 12.2841
rhand -4.89898 19.6202
rfingers 7.12502
rthumb 20.8905 -9.27499
lclavicle 1.12015e-013 7.15625e-015
lhumerus -47.6965 13.1573 69.6933
lradius 46.7981
lwrist 1.42493
lhand 0.22405 17.995
lfingers 7.12502
lthumb 25.805 46.2648
rfemur -12.5011 13.0062 26.7418
rtibia 14.1757
rfoot -37.0674 -37.3928
rtoes 28.9285
lfemur -38.8122 3.60982 -23.7363
ltibia 29.8598
lfoot -31.3024 27.3675
ltoes 18.938
